<?xml version="1.0" standalone="no"?>
<!DOCTYPE svg PUBLIC "-//W3C//DTD SVG 1.1//EN" "http://www.w3.org/Graphics/SVG/1.1/DTD/svg11.dtd" >
<svg xmlns="http://www.w3.org/2000/svg">
<metadata>Generated by IcoMoon</metadata>
<defs>
<font id="wook_icones" horiz-adv-x="1024">
<font-face units-per-em="1024" ascent="960" descent="-64" />
<missing-glyph horiz-adv-x="1024" />
<glyph unicode="&#x20;" horiz-adv-x="512" d="" />
<glyph unicode="&#x28;" glyph-name="(" d="M407.081 447.98l251.085 482.079c5.222 10.035 1.331 22.405-8.704 27.628-10.056 5.243-22.385 1.29-27.628-8.704l-256-491.54c-3.092-5.919-3.092-13.005 0-18.924l256-491.5c3.666-7.025 10.793-11.018 18.186-11.018 3.174 0 6.41 0.737 9.441 2.314 10.035 5.222 13.926 17.572 8.704 27.628l-251.085 482.038z" />
<glyph unicode="&#x29;" glyph-name=")" d="M658.166 457.482l-256 491.5c-5.202 10.035-17.551 13.967-27.628 8.704-10.035-5.222-13.926-17.572-8.704-27.628l251.064-482.038-251.064-482.079c-5.222-10.035-1.331-22.405 8.704-27.628 3.031-1.577 6.267-2.314 9.441-2.314 7.393 0 14.541 4.014 18.186 11.018l256 491.54c3.092 5.919 3.092 13.005 0 18.924z" />
<glyph unicode="&#x2a;" glyph-name="*" d="M672.031 316.928l-131.461 131.461 130.703 130.703c8.008 8.008 8.008 20.951 0 28.959s-20.951 8.008-28.959 0l-130.703-130.703-130.683 130.683c-8.008 8.008-20.951 8.008-28.959 0s-8.008-20.951 0-28.959l130.703-130.703-129.987-129.987c-8.008-8.008-8.008-20.951 0-28.959 3.994-3.994 9.236-6.001 14.479-6.001s10.486 2.007 14.479 6.001l129.987 129.987 131.461-131.461c3.994-3.994 9.236-6.001 14.479-6.001s10.486 2.007 14.479 6.001c7.987 8.008 7.987 20.972-0.020 28.979z" />
<glyph unicode="&#x2b;" glyph-name="+" d="M716.8 468.992h-184.832v184.832c0 11.325-9.155 20.48-20.48 20.48s-20.48-9.155-20.48-20.48v-184.832h-183.808c-11.325 0-20.48-9.155-20.48-20.48s9.155-20.48 20.48-20.48h183.808v-185.876c0-11.325 9.155-20.48 20.48-20.48s20.48 9.155 20.48 20.48v185.876h184.832c11.325 0 20.48 9.155 20.48 20.48s-9.155 20.48-20.48 20.48z" />
<glyph unicode="&#x2d;" glyph-name="-" d="M716.8 468.48h-409.6c-11.325 0-20.48-9.155-20.48-20.48s9.155-20.48 20.48-20.48h409.6c11.325 0 20.48 9.155 20.48 20.48s-9.155 20.48-20.48 20.48z" />
<glyph unicode="&#x3c;" glyph-name="<" d="M438.682 448l190.157 188.703c8.008 7.987 8.069 20.931 0.102 28.959-7.987 8.028-20.91 8.069-28.979 0.123l-204.8-203.244c-3.871-3.85-6.042-9.073-6.042-14.541s2.171-10.691 6.042-14.541l204.8-203.244c3.994-3.953 9.216-5.939 14.438-5.939 5.284 0 10.527 2.028 14.541 6.062 7.967 8.028 7.905 20.972-0.102 28.959l-190.157 188.703z" />
<glyph unicode="&#x3e;" glyph-name=">" d="M736.809 448.184c0 7.045-3.768 12.923-9.155 16.63l-202.465 202.486c-8.008 8.008-20.951 8.008-28.959 0s-8.008-20.951 0-28.959l169.636-169.656h-358.195c-11.325 0-20.48-9.155-20.48-20.48s9.155-20.48 20.48-20.48h358.543l-170.004-170.025c-8.008-8.008-8.008-20.951 0-28.959 4.014-4.014 9.257-6.021 14.5-6.021s10.486 2.007 14.479 6.001l203.571 203.592c4.772 3.748 8.049 9.298 8.049 15.872z" />
<glyph unicode="&#x41;" glyph-name="A" d="M737.157 448c0 6.902-3.4 13.005-8.622 16.712l-202.588 202.568c-1.741 1.741-3.809 2.99-5.96 3.994-0.655 0.307-1.331 0.492-2.028 0.717-1.679 0.553-3.379 0.901-5.14 1.024-0.43 0.020-0.86 0.266-1.331 0.266h-204.8c-11.325 0-20.48-9.175-20.48-20.48v-409.6c0-8.274 4.977-15.749 12.636-18.924s16.466-1.434 22.323 4.444l87.921 87.921 87.921-87.921c8.008-8.008 20.951-8.008 28.959 0l87.921 87.921 87.921-87.921c3.912-3.912 9.155-6.001 14.479-6.001 2.642 0 5.304 0.512 7.844 1.556 7.66 3.174 12.636 10.65 12.636 18.924v202.813c0.061 0.696 0.389 1.29 0.389 1.987zM531.968 603.361l134.881-134.881h-134.881v134.881zM628.367 360.079c-8.008 8.008-20.951 8.008-28.959 0l-87.921-87.921-87.921 87.921c-4.014 3.994-9.257 6.001-14.479 6.001s-10.486-2.007-14.479-6.001l-67.441-67.441v339.681h163.84v-184.32c0-11.305 9.155-20.48 20.48-20.48h184.32v-134.881l-67.441 67.441z" />
<glyph unicode="&#x42;" glyph-name="B" d="M563.18 571.249h-206.377l66.744 66.724c8.008 8.008 8.008 20.951 0 28.959s-20.951 8.008-28.959 0l-101.335-101.315c-2.109-2.007-3.83-4.321-4.936-7.045-2.109-5.038-2.089-10.711 0.020-15.729 0.41-0.963 1.167-1.679 1.7-2.56 0.84-1.393 1.475-2.847 2.683-4.035l101.315-101.315c3.994-3.994 9.236-6.001 14.479-6.001s10.486 2.007 14.479 6.001c8.008 8.008 8.008 20.951 0 28.959l-66.396 66.396h206.602c73.4 0 133.12-59.72 133.12-133.12s-59.72-133.12-133.12-133.12h-128c-11.325 0-20.48-9.155-20.48-20.48s9.155-20.48 20.48-20.48h128c95.99 0 174.080 78.111 174.080 174.080-0.020 95.99-78.111 174.080-174.1 174.080z" />
<glyph unicode="&#x43;" glyph-name="C" d="M512 229.11c-5.652 0-11.059 2.335-14.93 6.451l-33.546 35.656c-18.678 18.35-39.322 36.495-59.249 54.047-70.984 62.464-138.035 121.446-138.035 208.507 0 73.421 59.699 133.14 133.1 133.14 47.391 0 89.068-24.883 112.66-62.259 23.593 37.376 65.27 62.259 112.66 62.259 73.4 0 133.1-59.72 133.1-133.14 0-87.081-67.052-146.043-138.035-208.486-19.927-17.51-40.53-35.615-59.74-54.538l-33.055-35.185c-3.871-4.116-9.277-6.451-14.93-6.451zM399.34 625.93c-50.79 0-92.14-41.37-92.14-92.18 0-68.547 57.549-119.132 124.15-177.746 20.357-17.92 41.431-36.434 61.481-56.177l19.169-20.357 18.719 19.886c20.603 20.296 41.636 38.81 61.952 56.689 66.601 58.573 124.129 109.179 124.129 177.725 0 50.811-41.349 92.18-92.14 92.18-50.831 0-92.18-41.37-92.18-92.18 0-11.325-9.175-20.48-20.48-20.48s-20.48 9.155-20.48 20.48c0 50.811-41.349 92.16-92.18 92.16z" />
<glyph unicode="&#x45;" glyph-name="E" d="M746.844 502.661c-2.396 7.414-8.827 12.82-16.548 13.947l-138.138 20.070-61.809 125.194c-6.922 13.988-29.839 13.967-36.721 0l-61.768-125.174-138.138-20.070c-7.721-1.126-14.131-6.533-16.548-13.947s-0.41-15.544 5.181-20.992l99.942-97.423-23.593-137.585c-1.29-7.68 1.864-15.442 8.151-20.029 6.328-4.588 14.684-5.181 21.565-1.556l123.576 64.922 123.556-64.942c3.011-1.577 6.267-2.355 9.523-2.355 0.123 0 0.246 0 0.41 0 11.325 0 20.48 9.175 20.48 20.48 0 2.601-0.471 5.12-1.352 7.414l-22.917 133.632 99.963 97.423c5.571 5.448 7.578 13.578 5.181 20.992zM605.409 406.077c-4.833-4.71-7.045-11.489-5.919-18.125l18.391-107.315-96.358 50.668c-2.97 1.556-6.246 2.335-9.523 2.335s-6.554-0.778-9.523-2.355l-96.358-50.668 18.391 107.315c1.126 6.636-1.085 13.414-5.898 18.125l-77.947 75.981 107.745 15.647c6.676 0.963 12.431 5.161 15.421 11.203l48.169 97.628 48.21-97.628c2.99-6.042 8.745-10.24 15.421-11.203l107.725-15.647-77.947-75.96z" />
<glyph unicode="&#x46;" glyph-name="F" d="M611.942 365.568h93.921c11.305 0 20.48 9.175 20.48 20.48s-9.175 20.48-20.48 20.48h-143.36c-2.662 0-5.325-0.532-7.823-1.577-4.997-2.089-8.991-6.062-11.080-11.080-1.044-2.519-1.577-5.161-1.577-7.823v-143.36c0-11.305 9.175-20.48 20.48-20.48s20.48 9.175 20.48 20.48v93.921l108.401-108.401c3.994-3.994 9.236-6.001 14.479-6.001s10.486 2.007 14.479 6.001c8.008 8.008 8.008 20.951 0 28.959l-108.401 108.401zM274.698 509.952c0-11.305 9.175-20.48 20.48-20.48h139.817c1.352-0.287 2.703-0.799 4.096-0.799 5.243 0 10.486 2.007 14.479 6.001 4.731 4.751 6.328 11.182 5.448 17.367v141.271c0 11.305-9.175 20.48-20.48 20.48s-20.48-9.175-20.48-20.48v-94.167l-107.848 107.848c-8.008 8.008-20.951 8.008-28.959 0s-8.008-20.951 0-28.959l107.602-107.602h-93.676c-11.305 0-20.48-9.155-20.48-20.48zM547 495.432c0.246-0.225 0.307-0.532 0.512-0.758 3.994-3.994 9.236-6.001 14.479-6.001 1.393 0 2.744 0.512 4.116 0.799h138.67c11.325 0 20.48 9.175 20.48 20.48s-9.155 20.48-20.48 20.48h-92.57l107.602 107.602c8.008 8.008 8.008 20.951 0 28.959s-20.951 8.008-28.959 0l-108.954-108.954v95.273c0 11.305-9.155 20.48-20.48 20.48s-20.48-9.175-20.48-20.48v-143.36c0.020-5.673 2.335-10.793 6.062-14.52zM439.603 408.596h-143.36c-11.325 0-20.48-9.175-20.48-20.48s9.155-20.48 20.48-20.48h95.519l-110.49-110.49c-8.008-8.008-8.008-20.951 0-28.959 3.994-3.994 9.236-6.001 14.479-6.001s10.486 2.007 14.479 6.001l108.872 108.872v-92.324c0-11.305 9.155-20.48 20.48-20.48s20.48 9.175 20.48 20.48v143.36c0.020 11.325-9.134 20.5-20.46 20.5z" />
<glyph unicode="&#x4c;" glyph-name="L" d="M666.071 548.741h-308.142c-5.386 0-10.506-2.294-14.090-6.328-3.564-4.035-5.243-9.38-4.608-14.725l34.243-288.399c1.126-9.462 9.134-16.589 18.678-16.589h239.677c9.544 0 17.551 7.127 18.678 16.589l34.243 288.399c0.635 5.345-1.044 10.67-4.608 14.725-3.564 4.035-8.684 6.328-14.070 6.328zM543.99 511.119l-10.895-250.778h-42.66l-10.424 250.778h63.98zM379.105 511.119h63.263l10.424-250.778h-43.909l-29.778 250.778zM615.117 260.342h-44.401l10.895 250.778h63.283l-29.778-250.778zM696.893 632.3h-123.29v22.159c0 10.404-8.417 18.821-18.821 18.821h-85.606c-10.404 0-18.821-8.417-18.821-18.821v-22.159h-123.29c-10.404 0-18.801-8.417-18.801-18.821s8.397-18.801 18.801-18.801h141.537c0.205 0 0.369-0.123 0.553-0.123h85.606c0.205 0 0.369 0.123 0.553 0.123h141.537c10.404 0 18.801 8.397 18.801 18.801s-8.356 18.821-18.76 18.821zM487.997 635.658h48.005v-3.359h-48.005v3.359z" />
<glyph unicode="&#x4d;" glyph-name="M" d="M307.2 581.12h409.6c11.325 0 20.48 9.175 20.48 20.48s-9.155 20.48-20.48 20.48h-409.6c-11.325 0-20.48-9.175-20.48-20.48s9.155-20.48 20.48-20.48zM716.8 468.48h-409.6c-11.325 0-20.48-9.175-20.48-20.48s9.155-20.48 20.48-20.48h409.6c11.325 0 20.48 9.175 20.48 20.48s-9.155 20.48-20.48 20.48zM716.8 314.88h-409.6c-11.325 0-20.48-9.175-20.48-20.48s9.155-20.48 20.48-20.48h409.6c11.325 0 20.48 9.175 20.48 20.48s-9.155 20.48-20.48 20.48z" />
<glyph unicode="&#x53;" glyph-name="S" d="M505.876 671.252c-7.148 3.379-15.544 2.458-21.688-2.478l-204.8-163.84c-4.854-3.871-7.68-9.769-7.68-15.995v-81.92c0-6.226 2.826-12.124 7.68-15.995l204.8-163.84c3.707-2.949 8.253-4.465 12.82-4.465 3.011 0 6.062 0.676 8.888 2.028 7.086 3.42 11.592 10.588 11.592 18.452v409.6c0 7.864-4.526 15.053-11.612 18.452zM476.529 285.798l-163.84 131.072v62.259l163.84 131.072v-324.403zM686.305 597.77c-8.008 8.008-20.951 8.008-28.959 0-8.008-7.987-8.008-20.951 0-28.959 71.864-71.864 71.864-188.805 0-260.669-8.008-8.008-8.008-20.951 0-28.959 3.994-3.994 9.236-6.001 14.479-6.001s10.486 2.007 14.479 6.001c87.818 87.839 87.818 230.748 0 318.587zM584.929 525.373c-8.008-8.008-8.008-20.951 0-28.959 31.949-31.949 31.949-83.907 0-115.855-8.008-8.008-8.008-20.951 0-28.959 3.994-3.994 9.236-6.001 14.479-6.001s10.486 2.007 14.479 6.001c47.903 47.923 47.903 125.87 0 173.773-8.008 8.008-20.972 8.008-28.959 0z" />
<glyph unicode="&#x56;" glyph-name="V" d="M729.661 564.941c-8.049 7.967-20.992 7.926-28.979-0.123l-188.682-190.136-188.703 190.136c-7.967 8.028-20.91 8.090-28.979 0.123-8.028-7.987-8.069-20.931-0.102-28.959l203.244-204.8c3.85-3.891 9.073-6.062 14.541-6.062s10.691 2.171 14.541 6.062l203.244 204.8c7.946 8.028 7.905 20.972-0.123 28.959z" />
<glyph unicode="&#x57;" glyph-name="W" d="M729.784 360.018l-203.244 204.8c-7.7 7.762-21.381 7.762-29.082 0l-203.244-204.8c-7.967-8.028-7.905-20.972 0.102-28.959 8.049-7.946 20.992-7.905 28.979 0.123l188.703 190.136 188.703-190.136c4.014-4.035 9.257-6.062 14.541-6.062 5.202 0 10.445 1.987 14.438 5.939 8.008 7.987 8.049 20.931 0.102 28.959z" />
<glyph unicode="&#x58;" glyph-name="X" d="M833.679 155.279l-293.519 293.519 291.942 291.922c8.008 8.008 8.008 20.951 0 28.959s-20.951 8.008-28.959 0l-291.942-291.922-291.922 291.922c-8.008 8.008-20.951 8.008-28.959 0s-8.008-20.951 0-28.959l291.922-291.922-290.406-290.406c-8.008-8.008-8.008-20.951 0-28.959 3.994-3.994 9.236-6.001 14.479-6.001s10.486 2.007 14.479 6.001l290.406 290.406 293.519-293.519c3.994-3.994 9.236-6.001 14.479-6.001s10.486 2.007 14.479 6.001c8.008 8.008 8.008 20.951 0 28.959z" />
<glyph unicode="&#x5a;" glyph-name="Z" d="M731.279 257.679l-98.816 98.816c27.075 33.423 43.377 75.919 43.377 122.204 0 107.295-87.286 194.58-194.56 194.58s-194.56-87.286-194.56-194.58c0-107.274 87.286-194.56 194.56-194.56 46.285 0 88.801 16.302 122.225 43.397l98.816-98.816c3.994-3.994 9.236-6.001 14.479-6.001s10.486 2.007 14.479 6.001c8.008 8.008 8.008 20.951 0 28.959zM327.68 478.7c0 84.705 68.895 153.62 153.6 153.62s153.6-68.915 153.6-153.62c0-41.697-16.753-79.544-43.848-107.233-0.451-0.41-1.065-0.553-1.495-1.004s-0.594-1.044-1.004-1.495c-27.709-27.095-65.536-43.868-107.254-43.868-84.705 0-153.6 68.895-153.6 153.6zM561.050 499.2h-59.29v59.269c0 11.325-9.155 20.48-20.48 20.48s-20.48-9.155-20.48-20.48v-59.269h-59.269c-11.325 0-20.48-9.155-20.48-20.48s9.155-20.48 20.48-20.48h59.269v-59.29c0-11.325 9.155-20.48 20.48-20.48s20.48 9.155 20.48 20.48v59.29h59.29c11.325 0 20.48 9.155 20.48 20.48s-9.175 20.48-20.48 20.48z" />
<glyph unicode="&#x61;" glyph-name="a" d="M532.48 567.112v85.688c0 11.305-9.175 20.48-20.48 20.48s-20.48-9.175-20.48-20.48v-85.688c-23.798-8.499-40.96-31.007-40.96-57.672s17.162-49.172 40.96-57.651v-208.589c0-11.305 9.175-20.48 20.48-20.48s20.48 9.175 20.48 20.48v208.568c23.798 8.499 40.96 31.007 40.96 57.672s-17.162 49.172-40.96 57.672zM512 488.96c-11.284 0-20.48 9.196-20.48 20.48s9.196 20.48 20.48 20.48 20.48-9.196 20.48-20.48-9.196-20.48-20.48-20.48zM696.32 444.232v208.568c0 11.305-9.175 20.48-20.48 20.48s-20.48-9.175-20.48-20.48v-208.568c-23.798-8.499-40.96-31.007-40.96-57.672s17.162-49.172 40.96-57.651v-85.709c0-11.305 9.175-20.48 20.48-20.48s20.48 9.175 20.48 20.48v85.688c23.798 8.499 40.96 31.007 40.96 57.672s-17.162 49.172-40.96 57.672zM675.84 366.080c-11.284 0-20.48 9.196-20.48 20.48s9.196 20.48 20.48 20.48 20.48-9.196 20.48-20.48-9.196-20.48-20.48-20.48zM368.64 444.232v208.568c0 11.305-9.175 20.48-20.48 20.48s-20.48-9.175-20.48-20.48v-208.568c-23.798-8.499-40.96-31.007-40.96-57.672s17.162-49.172 40.96-57.651v-85.709c0-11.305 9.175-20.48 20.48-20.48s20.48 9.175 20.48 20.48v85.688c23.798 8.499 40.96 31.007 40.96 57.672s-17.162 49.172-40.96 57.672zM348.16 366.080c-11.284 0-20.48 9.196-20.48 20.48s9.196 20.48 20.48 20.48 20.48-9.196 20.48-20.48-9.196-20.48-20.48-20.48z" />
<glyph unicode="&#x62;" glyph-name="b" d="M716.288 673.28h-102.564c-11.325 0-20.48-9.175-20.48-20.48s9.155-20.48 20.48-20.48h82.084v-368.64h-368.64v368.64h83.169c11.325 0 20.48 9.175 20.48 20.48s-9.155 20.48-20.48 20.48h-103.649c-11.325 0-20.48-9.175-20.48-20.48v-409.6c0-11.305 9.155-20.48 20.48-20.48h409.6c11.325 0 20.48 9.175 20.48 20.48v409.6c0 11.305-9.175 20.48-20.48 20.48zM424.796 481.71c-8.008 8.008-20.951 8.008-28.959 0-8.008-7.987-8.008-20.951 0-28.959l101.478-101.499c1.27-1.27 2.806-1.966 4.26-2.826 0.799-0.471 1.454-1.188 2.335-1.556 2.519-1.044 5.202-1.618 7.885-1.618s5.345 0.553 7.844 1.597c2.683 1.106 5.018 2.806 6.984 4.874l101.581 101.581c8.008 8.008 8.008 20.972 0 28.959-8.008 8.008-20.951 8.008-28.959 0l-66.929-66.929v236.585c0 11.305-9.155 20.48-20.48 20.48s-20.48-9.175-20.48-20.48v-236.769l-66.56 66.56z" />
<glyph unicode="&#x63;" glyph-name="c" d="M505.999 261.468c0-16.966-13.754-30.72-30.72-30.72s-30.72 13.754-30.72 30.72c0 16.966 13.754 30.72 30.72 30.72s30.72-13.754 30.72-30.72zM690.79 261.468c0-16.966-13.754-30.72-30.72-30.72s-30.72 13.754-30.72 30.72c0 16.966 13.754 30.72 30.72 30.72s30.72-13.754 30.72-30.72zM752.456 515.092c-0.102 1.434-0.43 2.724-0.84 4.076-0.369 1.249-0.717 2.417-1.27 3.543-0.614 1.188-1.372 2.191-2.191 3.236-0.799 1.024-1.577 2.007-2.56 2.867-0.963 0.84-2.048 1.475-3.174 2.13-1.208 0.696-2.376 1.311-3.727 1.761-0.512 0.164-0.901 0.553-1.434 0.676-0.86 0.225-1.7 0.020-2.56 0.123-0.84 0.102-1.556 0.492-2.417 0.492h-312.013l-34.058 136.192c-2.273 9.114-10.465 15.503-19.866 15.503h-74.65c-11.305 0-20.48-9.175-20.48-20.48s9.175-20.48 20.48-20.48h58.655l69.55-278.2c2.273-9.114 10.465-15.503 19.866-15.503h256.983c9.4 0 17.592 6.39 19.866 15.503l35.492 142.029c0.205 0.86 0 1.679 0.102 2.519s0.492 1.577 0.492 2.458c0.061 0.553-0.205 1.024-0.246 1.556zM680.796 392.008h-225.014l-25.272 101.048h275.538l-25.252-101.048z" />
<glyph unicode="&#x64;" glyph-name="d" d="M532.644 448.799c0 11.325-9.155 20.48-20.48 20.48h-239.411l65.29 65.29c8.028 8.008 8.028 20.951 0 28.959-8.008 8.008-20.951 8.008-28.959 0l-101.356-101.356c-8.028-8.028-8.028-20.951 0-28.959l101.356-101.376c8.008-8.008 20.951-8.008 28.959 0 8.028 8.008 8.028 20.951 0 28.959l-67.543 67.543h241.664c11.325-0.020 20.48 9.134 20.48 20.46zM491.684 448.799c0-5.652 2.273-10.772 6.001-14.479 3.707-3.707 8.827-6.001 14.479-6.001h240.988l-67.359-67.359c-8.028-8.028-8.028-20.951 0-28.979 8.008-8.008 20.951-8.008 28.959 0.020l101.356 101.356c4.014 4.014 6.001 9.277 5.98 14.561 0.041 0.307 0.205 0.573 0.205 0.881 0 7.188-3.891 13.169-9.462 16.814l-98.079 98.079c-8.008 8.008-20.951 8.008-28.959 0-8.028-8.028-8.028-20.951 0-28.959l65.434-65.454h-239.063c-11.325 0-20.48-9.155-20.48-20.48zM396.145 650.588c-8.008-8.008-8.008-20.951 0-28.959s20.951-8.008 28.959 0l66.58 66.58v-240.21c0-5.652 2.294-10.772 6.001-14.5 3.686-3.707 8.806-5.98 14.479-5.98 11.325 0 20.48 9.155 20.48 20.48v239.862l66.232-66.232c8.008-8.008 20.951-8.008 28.959 0 8.028 8.008 8.028 20.951 0 28.959l-98.857 98.857c-3.645 5.571-9.646 9.482-16.814 9.482-6.717-0.020-12.37-3.461-16.118-8.438l-99.901-99.901zM628.019 244.593c8.008 8.008 8.008 20.951 0 28.959s-20.951 8.008-28.959 0l-66.417-66.417v240.865c0 11.325-9.155 20.48-20.48 20.48-11.305 0-20.48-9.155-20.48-20.48v-240.865l-66.396 66.417c-8.008 8.008-20.951 8.008-28.959 0-8.028-8.028-8.028-20.951 0-28.959l101.356-101.376c1.884-1.884 4.137-3.379 6.636-4.424 5.038-2.089 10.67-2.089 15.688 0 2.499 1.044 4.751 2.54 6.636 4.424l101.376 101.376z" />
<glyph unicode="&#x65;" glyph-name="e" d="M746.844 502.661c-2.396 7.414-8.827 12.82-16.548 13.947l-138.138 20.070-61.809 125.194c-6.902 13.988-29.839 13.967-36.721 0l-61.768-125.174-138.138-20.070c-7.721-1.126-14.131-6.533-16.548-13.947s-0.41-15.544 5.181-20.992l99.942-97.423-23.593-137.585c-1.29-7.68 1.864-15.442 8.151-20.029 6.328-4.588 14.684-5.181 21.565-1.556l123.576 64.922 123.556-64.942c3.011-1.577 6.267-2.355 9.523-2.355 0.123 0 0.246 0 0.41 0 11.325 0 20.48 9.175 20.48 20.48 0 2.601-0.471 5.12-1.352 7.414l-22.917 133.632 99.963 97.423c5.571 5.448 7.578 13.578 5.181 20.992z" />
<glyph unicode="&#x66;" glyph-name="f" d="M465.551 402.596c-8.008 8.008-20.951 8.008-28.959 0l-108.872-108.872v92.324c0 11.325-9.155 20.48-20.48 20.48s-20.48-9.155-20.48-20.48v-143.36c0-11.325 9.155-20.48 20.48-20.48h143.36c11.325 0 20.48 9.155 20.48 20.48s-9.155 20.48-20.48 20.48h-95.519l110.49 110.49c7.987 7.987 7.987 20.951-0.020 28.938zM558.449 495.473c3.994-3.994 9.236-6.001 14.479-6.001s10.486 2.007 14.479 6.001l108.954 108.954v-95.273c0-11.325 9.155-20.48 20.48-20.48s20.48 9.155 20.48 20.48v143.36c0 5.673-2.314 10.793-6.062 14.52-0.205 0.246-0.287 0.532-0.492 0.758-5.059 5.079-12.063 6.554-18.575 5.202h-138.691c-11.325 0-20.48-9.155-20.48-20.48s9.155-20.48 20.48-20.48h92.57l-107.602-107.602c-8.028-7.987-8.028-20.951-0.020-28.959zM286.761 509.153c0-11.325 9.155-20.48 20.48-20.48s20.48 9.155 20.48 20.48v94.167l107.848-107.848c3.994-3.994 9.236-6.001 14.479-6.001s10.486 2.007 14.479 6.001c8.008 8.008 8.008 20.951 0 28.959l-107.602 107.602h93.676c11.325 0 20.48 9.155 20.48 20.48s-9.155 20.48-20.48 20.48h-139.817c-6.513 1.352-13.517-0.123-18.575-5.202-4.731-4.751-6.328-11.203-5.448-17.367v-141.271zM737.792 386.048c0 11.325-9.155 20.48-20.48 20.48s-20.48-9.155-20.48-20.48v-93.921l-108.401 108.401c-8.008 8.008-20.951 8.008-28.959 0s-8.008-20.951 0-28.959l108.401-108.401h-93.921c-11.325 0-20.48-9.155-20.48-20.48s9.155-20.48 20.48-20.48h143.36c2.662 0 5.325 0.532 7.823 1.577 5.018 2.089 8.991 6.062 11.080 11.080 1.044 2.499 1.577 5.161 1.577 7.823v143.36z" />
<glyph unicode="&#x67;" glyph-name="g" d="M439.706 358.892c3.277-2.028 7.025-3.052 10.752-3.052 3.133 0 6.267 0.717 9.155 2.15l143.36 71.68c6.943 3.461 11.325 10.568 11.325 18.33s-4.383 14.848-11.325 18.33l-143.36 71.68c-6.349 3.154-13.906 2.847-19.927-0.901-6.042-3.727-9.728-10.322-9.728-17.428v-143.36c0.020-7.107 3.707-13.681 9.748-17.428zM470.938 486.543l77.087-38.543-77.087-38.543v77.087zM716.8 673.28h-409.6c-11.325 0-20.48-9.175-20.48-20.48v-409.6c0-11.305 9.155-20.48 20.48-20.48h409.6c11.325 0 20.48 9.175 20.48 20.48v409.6c0 11.305-9.155 20.48-20.48 20.48zM696.32 263.68h-368.64v368.64h368.64v-368.64z" />
<glyph unicode="&#x68;" glyph-name="h" d="M716.8 673.28h-409.6c-11.325 0-20.48-9.175-20.48-20.48v-409.62c0-11.305 9.155-20.48 20.48-20.48h409.6c11.325 0 20.48 9.175 20.48 20.48v409.62c0 11.305-9.155 20.48-20.48 20.48zM696.32 632.32v-302.879l-119.112 159.355c-3.83 5.12-9.81 8.151-16.179 8.212-6.963 0.164-12.431-2.826-16.364-7.864l-108.79-139.223-32.584 38.81c-3.994 4.792-10.24 7.619-16.261 7.311-6.267-0.184-12.104-3.215-15.831-8.212l-43.52-58.327v302.817h368.64zM694.354 263.66h-364.687l58.9 78.93 32.195-38.38c3.953-4.731 10.404-7.311 16.036-7.311 6.185 0.102 11.981 2.99 15.79 7.864l107.868 138.035 133.898-179.139zM468.050 532.132c0-22.622-18.338-40.96-40.96-40.96s-40.96 18.338-40.96 40.96c0 22.622 18.338 40.96 40.96 40.96s40.96-18.338 40.96-40.96z" />
<glyph unicode="&#x69;" glyph-name="i" d="M471.040 581.12h245.76c11.325 0 20.48 9.155 20.48 20.48s-9.155 20.48-20.48 20.48h-245.76c-11.325 0-20.48-9.155-20.48-20.48s9.155-20.48 20.48-20.48zM716.8 468.48h-245.76c-11.325 0-20.48-9.155-20.48-20.48s9.155-20.48 20.48-20.48h245.76c11.325 0 20.48 9.155 20.48 20.48s-9.155 20.48-20.48 20.48zM716.8 314.88h-245.76c-11.325 0-20.48-9.155-20.48-20.48s9.155-20.48 20.48-20.48h245.76c11.325 0 20.48 9.155 20.48 20.48s-9.155 20.48-20.48 20.48zM348.16 622.080h-40.96c-11.325 0-20.48-9.155-20.48-20.48s9.155-20.48 20.48-20.48h40.96c11.325 0 20.48 9.155 20.48 20.48s-9.155 20.48-20.48 20.48zM348.16 468.48h-40.96c-11.325 0-20.48-9.155-20.48-20.48s9.155-20.48 20.48-20.48h40.96c11.325 0 20.48 9.155 20.48 20.48s-9.155 20.48-20.48 20.48zM348.16 314.88h-40.96c-11.325 0-20.48-9.155-20.48-20.48s9.155-20.48 20.48-20.48h40.96c11.325 0 20.48 9.155 20.48 20.48s-9.155 20.48-20.48 20.48z" />
<glyph unicode="&#x6a;" glyph-name="j" d="M737.137 530.35c-0.041 1.352-0.492 2.683-0.819 4.035-0.328 1.311-0.492 2.683-1.065 3.912-0.082 0.205-0.082 0.41-0.164 0.594-0.471 0.922-1.249 1.516-1.823 2.314-0.86 1.249-1.618 2.437-2.703 3.441-0.983 0.963-2.13 1.516-3.236 2.191-1.126 0.717-2.13 1.434-3.4 1.925-1.393 0.512-2.867 0.676-4.362 0.881-0.963 0.164-1.823 0.553-2.826 0.553-0.225 0-0.41-0.123-0.614-0.123-1.331-0.041-2.662-0.471-3.994-0.799-1.352-0.328-2.724-0.512-3.973-1.085-0.184-0.082-0.41-0.082-0.594-0.164l-121.16-60.764c-7.885-2.888-13.619-10.24-13.619-19.128v-164.168c-22.61 0-41.042-18.391-41.042-41.001 0-22.63 18.412-41.042 41.042-41.042s41.042 18.391 41.042 41.042v130.601l82.412 41.329v-69.366c-22.63 0-41.042-18.391-41.042-41.042 0-22.61 18.391-41.001 41.042-41.001s41.042 18.473 41.042 41.083v205.148c0 0.246-0.143 0.41-0.143 0.635zM613.827 439.521v15.688l82.412 41.288v-15.647l-82.412-41.329zM499.384 263.721h-89.539v95.724h128.184c11.325 0 20.521 9.155 20.521 20.521 0 11.325-9.196 20.521-20.521 20.521h-128.184v95.724h143.606c1.188 0 2.191 0.471 3.318 0.676 1.352 0.246 2.744 0.287 4.014 0.799 1.884 0.717 3.461 1.884 5.038 3.113 0.512 0.41 1.126 0.594 1.577 1.044 1.823 1.72 3.215 3.727 4.342 5.96 0.102 0.246 0.328 0.41 0.43 0.635 1.126 2.56 1.802 5.325 1.802 8.274v34.202h42.107c2.314-8.765 9.974-15.319 19.456-15.319 11.325 0 20.5 9.155 20.5 20.48v97.403c0 11.366-9.175 20.521-20.5 20.521h-328.294c-11.346 0-20.521-9.155-20.521-20.521v-410.317c0-11.325 9.175-20.521 20.521-20.521h82.084c0.041 0 0.061 0.041 0.102 0.041h109.957c11.346 0 20.5 9.155 20.5 20.521 0 11.325-9.155 20.521-20.5 20.521zM368.783 427.807h-41.021v41.042h41.021v-41.042zM368.783 509.87h-41.021v41.042h41.021v-41.042zM327.762 386.806h41.021v-41.042h-41.021v41.042zM614.994 591.954h-41.042v41.001h41.042v-41.001zM409.846 632.955h123.105v-95.724h-123.105v95.724zM368.783 632.955v-41.001h-41.021v41.001h41.021zM327.762 263.68v41.042h41.021v-41.042h-41.021z" />
<glyph unicode="&#x6b;" glyph-name="k" d="M737.28 243.2v409.6c0 11.305-9.155 20.48-20.48 20.48s-20.48-9.175-20.48-20.48v-192.553c-0.553 0.717-0.881 1.597-1.516 2.232l-79.606 79.606c-8.008 8.008-20.951 8.008-28.959 0-3.994-3.994-6.001-9.236-6.001-14.479s2.007-10.486 6.001-14.479l44.667-44.646h-73.441c-11.325 0-20.48-9.175-20.48-20.48 0-11.325 9.155-20.48 20.48-20.48h73.441l-44.667-44.667c-8.008-8.008-8.008-20.951 0-28.959s20.951-8.008 28.959 0l79.606 79.585c0.635 0.635 0.963 1.516 1.516 2.232v-192.512c0-11.325 9.155-20.48 20.48-20.48s20.48 9.155 20.48 20.48zM327.68 243.2v195.441c0.983-1.884 2.028-3.686 3.502-5.161l79.585-79.585c8.008-8.008 20.951-8.008 28.959 0s8.008 20.951 0 28.959l-44.646 44.667h73.421c11.325 0 20.48 9.155 20.48 20.48 0 11.305-9.155 20.48-20.48 20.48h-73.441l44.667 44.646c8.008 8.008 8.008 20.951 0 28.959s-20.951 8.008-28.959 0l-79.626-79.606c-0.041-0.041-0.061-0.123-0.102-0.164-1.413-1.434-2.417-3.195-3.359-4.956v195.441c0 11.305-9.155 20.48-20.48 20.48s-20.48-9.175-20.48-20.48v-409.6c0-11.325 9.155-20.48 20.48-20.48s20.48 9.155 20.48 20.48z" />
<glyph unicode="&#x6c;" glyph-name="l" d="M512 427.5c11.325 0 20.48 9.175 20.48 20.48v204.82c0 11.305-9.155 20.48-20.48 20.48s-20.48-9.175-20.48-20.48v-204.82c0-11.305 9.155-20.48 20.48-20.48zM671.314 607.273c-8.008 8.008-20.951 8.008-28.959 0-8.008-7.987-8.008-20.951 0-28.959 71.844-71.864 71.844-188.805 0-260.669-71.885-71.823-188.846-71.864-260.69 0-34.816 34.816-53.985 81.080-53.985 130.314s19.169 95.519 53.985 130.335c8.008 8.008 8.008 20.951 0 28.959s-20.951 8.008-28.959 0c-42.537-42.516-65.987-99.082-65.987-159.273 0-60.17 23.45-116.736 65.987-159.273 43.93-43.93 101.601-65.884 159.293-65.884 57.672 0 115.405 21.975 159.314 65.884 87.818 87.818 87.839 230.728 0 318.566z" />
<glyph unicode="&#x6d;" glyph-name="m" d="M665.6 673.28h-307.2c-11.325 0-20.48-9.175-20.48-20.48v-409.6c0-15.36 21.094-25.539 33.874-17.039l140.206 93.471 140.165-93.471c3.359-2.232 7.311-3.441 11.346-3.441h2.089c11.325 0 20.48 9.175 20.48 20.48v409.6c0 11.305-9.155 20.48-20.48 20.48zM645.12 280.084l-121.754 81.183c-3.441 2.294-7.393 3.441-11.366 3.441s-7.926-1.147-11.366-3.441l-121.754-81.162v352.215h266.24v-352.236z" />
<glyph unicode="&#x6e;" glyph-name="n" d="M315.556 268.964l173.793 28.979c0.758 0.123 1.311 0.573 2.028 0.778 1.331 0.369 2.601 0.819 3.85 1.475s2.355 1.413 3.461 2.294c0.553 0.451 1.27 0.655 1.782 1.188l217.17 217.17c0.041 0.020 0.082 0.020 0.102 0.061 28.774 28.856 13.292 87.798-35.983 137.257-0.041 0.041-0.041 0.082-0.082 0.123-0.020 0.020-0.041 0.020-0.082 0.041-0.041 0.041-0.082 0.082-0.123 0.143-49.562 49.5-108.687 65.085-137.564 36.188l-217.231-217.211c-0.532-0.532-0.737-1.249-1.208-1.802-0.881-1.085-1.638-2.171-2.273-3.42s-1.106-2.519-1.475-3.85c-0.205-0.696-0.635-1.27-0.758-2.007l-28.959-173.793c-1.085-6.533 1.044-13.189 5.714-17.859 3.871-3.871 9.073-6.001 14.479-6.001 1.126-0.041 2.253 0.061 3.359 0.246zM637.379 642.949l-201.892-201.871c-8.008-8.008-8.008-20.951 0-28.959 3.994-3.994 9.236-6.001 14.479-6.001s10.486 2.007 14.479 6.001l201.83 201.83c23.982-30.228 29-57.549 22.467-64.082 0 0-0.020 0-0.020-0.020l-212.562-212.582-139.039-23.183 23.163 139.039 212.603 212.582c6.595 6.533 34.12 1.495 64.492-22.753zM711.803 227.717h-392.806c-11.325 0-20.48-9.175-20.48-20.48s9.155-20.48 20.48-20.48h392.806c11.325 0 20.48 9.175 20.48 20.48s-9.155 20.48-20.48 20.48z" />
<glyph unicode="&#x6f;" glyph-name="o" d="M757.76 427.52v40.96h-42.557c-2.232 22.385-8.233 43.622-17.142 63.304l36.987 21.34-20.48 35.471-37.069-21.402c-12.861 17.818-28.508 33.423-46.305 46.305l21.381 37.048-35.471 20.46-21.299-36.946c-19.702 8.909-40.96 14.93-63.365 17.162v42.537h-40.96v-42.516c-22.385-2.232-43.643-8.233-63.324-17.142l-21.361 36.987-35.43-20.48 21.402-37.069c-17.818-12.861-33.444-28.508-46.326-46.326l-37.048 21.402-20.48-35.451 36.987-21.34c-8.909-19.681-14.909-40.94-17.142-63.324h-42.516v-40.96h42.516c2.232-22.385 8.233-43.643 17.142-63.324l-36.987-21.34 20.48-35.471 37.048 21.381c12.882-17.818 28.508-33.444 46.305-46.326l-21.381-37.048 35.43-20.48 21.361 36.966c19.681-8.909 40.919-14.93 63.324-17.162v-42.496h40.96v42.476c22.405 2.232 43.643 8.253 63.324 17.142l21.34-36.946 35.471 20.48-21.381 37.048c17.797 12.861 33.444 28.508 46.305 46.326l37.069-21.381 20.48 35.471-36.987 21.34c8.909 19.681 14.909 40.94 17.142 63.324h42.557zM511.959 284.631c-90.030 0-163.287 73.277-163.287 163.369 0 90.051 73.236 163.328 163.287 163.328s163.328-73.277 163.328-163.328c0-90.071-73.277-163.369-163.328-163.369z" />
<glyph unicode="&#x70;" glyph-name="p" d="M716.8 570.88h-81.92v81.92c0 11.305-9.155 20.48-20.48 20.48h-204.8c-11.325 0-20.48-9.175-20.48-20.48v-81.92h-81.92c-11.325 0-20.48-9.175-20.48-20.48v-204.8c0-11.325 9.155-20.48 20.48-20.48h81.92v-81.92c0-11.325 9.155-20.48 20.48-20.48h204.8c11.325 0 20.48 9.155 20.48 20.48v81.92h81.92c11.325 0 20.48 9.155 20.48 20.48v204.8c0 11.305-9.155 20.48-20.48 20.48zM430.080 632.32h163.84v-61.44h-163.84v61.44zM593.92 263.68h-163.84v163.84h163.84v-163.84zM696.32 366.080h-61.44v81.92c0 11.305-9.155 20.48-20.48 20.48h-204.8c-11.325 0-20.48-9.175-20.48-20.48v-81.92h-61.44v163.84h368.64v-163.84z" />
<glyph unicode="&#x72;" glyph-name="r" d="M511.488 632.914c36.721 0 71.803-10.691 101.704-30.556l-84.828-24.33c-10.875-3.113-17.162-14.479-14.049-25.334 2.58-8.97 10.752-14.848 19.661-14.848 1.884 0 3.789 0.266 5.652 0.799l122.286 35.082c0.369 0.102 0.594 0.369 0.963 0.492 1.27 0.43 2.396 1.188 3.604 1.884s2.376 1.331 3.379 2.232c0.287 0.246 0.635 0.328 0.901 0.594 0.655 0.676 0.942 1.536 1.495 2.253 0.86 1.126 1.7 2.212 2.314 3.482 0.573 1.229 0.881 2.458 1.208 3.727 0.246 0.881 0.717 1.659 0.84 2.56 0.041 0.389-0.123 0.819-0.102 1.208 0.082 1.454-0.123 2.847-0.348 4.28-0.143 0.881 0.041 1.741-0.225 2.621 0 0 0 0 0 0l-35.041 122.266c-3.092 10.895-14.541 17.142-25.313 14.049-10.875-3.113-17.162-14.459-14.049-25.334l18.35-64c-32.85 18.104-69.857 27.812-108.421 27.812-124.211 0-225.28-101.069-225.28-225.28 0-11.305 9.155-20.48 20.48-20.48s20.48 9.175 20.48 20.48c0.020 101.663 82.698 184.34 184.34 184.34zM716.288 469.074c-11.325 0-20.48-9.175-20.48-20.48 0-101.642-82.678-184.32-184.32-184.32-35.983 0-70.431 10.363-100.024 29.512l84.296 24.166c10.875 3.113 17.162 14.479 14.049 25.334s-14.438 17.183-25.313 14.070l-122.286-35.082c-0.389-0.102-0.635-0.389-1.004-0.512-1.29-0.43-2.458-1.167-3.666-1.884-0.819-0.492-1.823-0.737-2.56-1.331-0.348-0.266-0.492-0.655-0.819-0.963-0.287-0.266-0.635-0.348-0.922-0.614-0.614-0.635-0.881-1.454-1.393-2.15-0.881-1.147-1.72-2.232-2.335-3.564-0.553-1.208-0.86-2.417-1.188-3.686-0.225-0.86-0.696-1.618-0.819-2.499-0.041-0.43 0.143-0.86 0.123-1.29-0.102-1.434 0.123-2.826 0.348-4.26 0.123-0.86-0.041-1.7 0.205-2.54l35.082-122.327c2.58-8.97 10.752-14.848 19.681-14.848 1.864 0 3.768 0.287 5.632 0.799 10.875 3.113 17.162 14.479 14.049 25.354l-18.555 64.655c32.666-17.756 69.345-27.3 107.438-27.3 124.211 0 225.28 101.069 225.28 225.28-0.020 11.325-9.196 20.48-20.5 20.48z" />
<glyph unicode="&#x73;" glyph-name="s" d="M731.279 257.679l-163.144 163.144c20.357 26.481 32.625 59.515 32.625 95.437 0 86.589-70.431 157.020-157.020 157.020s-157.020-70.431-157.020-157.020 70.431-157.020 157.020-157.020c35.922 0 68.956 12.247 95.437 32.625l163.144-163.144c3.994-3.994 9.236-6.001 14.479-6.001s10.486 2.007 14.479 6.001c8.008 8.008 8.008 20.951 0 28.959zM327.68 516.26c0 64 52.060 116.060 116.060 116.060s116.060-52.060 116.060-116.060-52.060-116.060-116.060-116.060-116.060 52.060-116.060 116.060z" />
<glyph unicode="&#x76;" glyph-name="v" d="M680.038 539.894c-8.049 7.967-20.992 7.926-28.979-0.123l-139.059-140.083-139.059 140.104c-7.987 8.049-20.931 8.090-28.979 0.123-8.008-7.987-8.069-20.931-0.102-28.959l153.6-154.767c3.85-3.871 9.073-6.062 14.541-6.062s10.67 2.171 14.541 6.062l153.6 154.767c7.967 8.008 7.905 20.972-0.102 28.938z" />
<glyph unicode="&#x77;" glyph-name="w" d="M680.141 385.044l-153.6 154.767c-7.7 7.762-21.381 7.762-29.082 0l-153.6-154.767c-7.967-8.028-7.905-20.972 0.102-28.959 8.049-7.946 20.992-7.905 28.979 0.123l139.059 140.083 139.059-140.104c4.014-4.035 9.257-6.062 14.541-6.062 5.222 0 10.445 1.987 14.438 5.939 8.008 7.987 8.069 20.951 0.102 28.979z" />
<glyph unicode="&#x78;" glyph-name="x" d="M603.136 385.843l-62.362 62.362 61.952 61.952c8.008 8.008 8.008 20.951 0 28.959s-20.951 8.008-28.959 0l-61.972-61.972-61.972 61.972c-8.008 8.008-20.951 8.008-28.959 0s-8.008-20.951 0-28.959l61.972-61.972-61.583-61.583c-8.008-8.008-8.008-20.951 0-28.959 3.994-3.994 9.236-6.001 14.479-6.001s10.486 2.007 14.479 6.001l61.604 61.604 62.362-62.362c3.994-3.994 9.236-6.001 14.479-6.001s10.486 2.007 14.479 6.001c8.008 7.987 8.008 20.951 0 28.959z" />
<glyph unicode="&#x79;" glyph-name="y" d="M613.868 635.638c-10.711 3.666-22.323-2.273-25.866-13.025l-98.017-296.509-56.381 84.603c-6.287 9.421-18.985 11.96-28.406 5.673-9.4-6.287-11.96-18.985-5.673-28.406l79.688-119.562c1.024-1.516 2.191-2.847 3.523-3.994 0.061-0.061 0.164-0.102 0.246-0.184 1.843-1.577 3.953-2.683 6.185-3.502 0.246-0.102 0.43-0.328 0.676-0.41 0.205-0.061 0.43-0.041 0.614-0.102 1.864-0.553 3.789-0.922 5.734-0.942 0.020 0 0.041 0 0.041 0h0.020c0.020 0 0.020 0 0.020 0 2.028 0 4.055 0.348 6.042 0.963 0.799 0.246 1.475 0.696 2.253 1.044 1.024 0.451 2.089 0.799 3.031 1.434 0.082 0.061 0.123 0.143 0.205 0.205 2.007 1.372 3.748 3.133 5.161 5.202 0.43 0.614 0.676 1.311 1.044 2.007 0.573 1.065 1.27 2.028 1.679 3.215l111.206 336.404c3.543 10.772-2.294 22.344-13.025 25.887z" />
<glyph unicode="&#x7a;" glyph-name="z" d="M731.279 257.679l-98.816 98.816c27.075 33.423 43.377 75.919 43.377 122.204 0 107.295-87.286 194.58-194.56 194.58s-194.56-87.286-194.56-194.58c0-107.274 87.286-194.56 194.56-194.56 46.285 0 88.801 16.302 122.225 43.397l98.816-98.816c3.994-3.994 9.236-6.001 14.479-6.001s10.486 2.007 14.479 6.001c8.008 8.008 8.008 20.951 0 28.959zM327.68 478.7c0 84.705 68.895 153.62 153.6 153.62s153.6-68.915 153.6-153.62c0-41.697-16.753-79.544-43.848-107.233-0.451-0.41-1.065-0.553-1.495-1.004s-0.594-1.044-1.004-1.495c-27.709-27.095-65.536-43.868-107.254-43.868-84.705 0-153.6 68.895-153.6 153.6zM561.050 499.2h-159.498c-11.325 0-20.48-9.155-20.48-20.48s9.155-20.48 20.48-20.48h159.498c11.325 0 20.48 9.155 20.48 20.48s-9.175 20.48-20.48 20.48z" />
</font>
</defs>
</svg>
